<svg id="crochet" data-name="ksllcrochet" xmlns="http://www.w3.org/2000/svg"
    viewBox="0 0 1000 1000">
    <defs>
        <style>.cls-1{fill:none;}
            .cls-2{fill:#1f2029;}
            .cls-3{fill:#1f2029;}
        </style>
    </defs>
    <title>KsLabs - Copyright Logo (c) all right reserverd to Kerogs Laboratories.</title>
    <path class="cls-1"
        d="M0,0H1000V1000H0ZM403.53,738.3a29.29,29.29,0,0,0,2.48,3.38q118.42,118.5,236.87,237a6.8,6.8,0,0,0,5.31,2.28c16.62-.1,33.24-.06,49.86-.06h3.36V795.12a27,27,0,0,1-3-2.25Q452.23,546.72,206,300.58a7.27,7.27,0,0,0-4.64-2q-89.8-.15-179.63-.08c-.85,0-1.71.13-2.6.21,0,17.68.05,35.1-.06,52.51a7.91,7.91,0,0,0,2.59,6.22Q146.93,482.58,272.13,607.8a22.56,22.56,0,0,0,3,2.16L61,980.87h2.55q98.7,0,197.39.07c2.22,0,3.14-1,4.12-2.65q17.67-30.78,35.45-61.5c13.07-22.71,26.05-45.47,39.16-68.17Q363,808.26,386.43,768C392,758.37,397.5,748.76,403.53,738.3ZM299.18,19.13v4.14q0,89.82-.06,179.65a8.35,8.35,0,0,0,2.66,6.53Q516.07,423.59,730.25,637.84c20.2,20.2,40.47,40.35,60.52,60.7a9.3,9.3,0,0,0,7.51,3q89.82-.12,179.65,0h3.51v-55a41.29,41.29,0,0,1-4.59-3.39Q850.88,517.26,725,391.29c-.79-.8-1.55-1.62-2.47-2.58Q829.1,204,935.79,19.22c-1,0-1.57-.09-2.11-.09q-98.88,0-197.75-.05A3.94,3.94,0,0,0,732,21.42q-17.67,30.8-35.46,61.52l-58.87,102q-14.88,25.78-29.77,51.56c-4.57,7.92-9.17,15.83-14.06,24.27-1-1.21-1.63-2.17-2.43-3q-55.89-55.92-111.8-111.82Q417.29,83.63,355,21.36c-1-1-2.36-2.13-3.57-2.14C334.11,19.08,316.82,19.13,299.18,19.13Z" />
    <path class="cls-2"
        d="M403.53,738.3c-6,10.46-11.54,20.07-17.1,29.66q-23.37,40.34-46.76,80.66c-13.11,22.7-26.09,45.46-39.16,68.17q-17.72,30.76-35.45,61.5c-1,1.7-1.9,2.65-4.12,2.65q-98.7-.12-197.39-.07H61L275.13,610a22.56,22.56,0,0,1-3-2.16Q146.89,482.63,21.66,357.45a7.91,7.91,0,0,1-2.59-6.22c.11-17.41.06-34.83.06-52.51.89-.08,1.75-.21,2.6-.21q89.82,0,179.63.08a7.27,7.27,0,0,1,4.64,2Q452.27,546.67,698.44,792.87a27,27,0,0,0,3,2.25V980.87h-3.36c-16.62,0-33.24,0-49.86.06a6.8,6.8,0,0,1-5.31-2.28Q524.47,860.15,406,741.68A29.29,29.29,0,0,1,403.53,738.3Z" />
    <path class="cls-3"
        d="M299.18,19.13c17.64,0,34.93-.05,52.21.09,1.21,0,2.6,1.17,3.57,2.14Q417.31,83.61,479.6,145.94q55.9,55.91,111.8,111.82c.8.8,1.45,1.76,2.43,3,4.89-8.44,9.49-16.35,14.06-24.27q14.9-25.77,29.77-51.56l58.87-102Q714.28,52.19,732,21.42a3.94,3.94,0,0,1,3.94-2.34q98.88.09,197.75.05c.54,0,1.09,0,2.11.09Q829,204.22,722.48,388.71c.92,1,1.68,1.78,2.47,2.58q125.94,125.94,251.9,251.86a41.29,41.29,0,0,0,4.59,3.39v55h-3.51q-89.82,0-179.65,0a9.3,9.3,0,0,1-7.51-3c-20-20.35-40.32-40.5-60.52-60.7Q516,423.61,301.78,209.45a8.35,8.35,0,0,1-2.66-6.53q.12-89.82.06-179.65Z" />
</svg>