<?xml version="1.0" standalone="no"?>
<!DOCTYPE svg PUBLIC "-//W3C//DTD SVG 20010904//EN" "http://www.w3.org/TR/2001/REC-SVG-20010904/DTD/svg10.dtd">
<svg version="1.0" xmlns="http://www.w3.org/2000/svg"
    width="300.000000pt" height="242.000000pt" viewBox="0 0 300.000000 242.000000"
    preserveAspectRatio="xMidYMid meet">
    <metadata> Created by Kerogs // KS-INFINITE </metadata>
    <g transform="translate(0.000000,242.000000) scale(0.100000,-0.100000)"
        fill="#4e42d4" stroke="none">
        <path
            d="M0 1210 l0 -1200 310 0 310 0 0 358 0 357 110 110 c67 67 113 106
119 100 4 -6 151 -216 325 -468 l318 -457 370 0 370 0 -14 22 c-9 13 -228 322
-487 687 l-472 665 119 120 c65 67 289 297 497 511 l379 390 -378 3 -377 2
-152 -157 c-132 -136 -486 -506 -669 -698 l-58 -60 0 458 0 457 -310 0 -310 0
0 -1200z" />
        <path
            d="M2188 2258 c-75 -79 -278 -289 -452 -468 -359 -368 -335 -328 -260
-442 99 -148 222 -227 604 -387 225 -95 290 -154 290 -266 0 -99 -49 -155
-152 -177 -71 -15 -169 -1 -254 37 -31 14 -58 24 -59 23 -2 -2 86 -128 194
-281 l196 -277 45 5 c68 9 166 43 255 88 115 59 226 172 283 287 54 111 74
199 73 330 0 187 -52 327 -166 448 -107 115 -218 181 -514 302 -261 108 -338
180 -317 295 23 123 197 173 349 100 71 -33 191 -127 241 -188 l38 -46 210
192 210 192 -74 71 c-141 135 -317 235 -495 280 -52 13 -98 24 -102 24 -4 0
-68 -64 -143 -142z" />
    </g>
</svg>