<svg xmlns="http://www.w3.org/2000/svg" width="700" height="700" viewBox="0 0 700 700">
  <defs>
    <style>
      .cls-1 {
        fill: #ce133b;
        fill-rule: evenodd;
      }
    </style>
  </defs>
  <path id="Magpie_Watch_1" data-name="Magpie Watch 1" class="cls-1" d="M604.479,187.682c11.886-1.461,28.18-13.276,36.832-19.57,4.01-2.917,4.993-7.194,10.359-9.209v2.3c-5.194,5.025-7.194,12.437-11.51,18.419-9.99,13.844-26.286,28.143-40.285,37.989-19.172,13.484-61.738,31.485-71.362,51.8h4.6c3.248-2.219,7.426-1.785,11.51-3.454,11.929-4.874,25.86-9.427,36.832-16.116,9.263-5.649,25.654-20.853,35.681-23.024v2.3c-5.29,5.111-8.228,12.421-12.661,18.419-9.32,12.608-24.944,26.924-37.983,35.687-25.564,17.18-61.376,29.585-78.268,55.257h1.151c5-3.817,11.891-3.039,18.416-5.756,12.111-5.042,23.426-15.42,35.681-19.57v3.454C532.9,323.521,524.2,337.776,513.55,345.4a247.925,247.925,0,0,1-93.231,41.443v3.454c16.824-.815,30.726-7.653,44.889-11.512v2.3c-5.224,3.358-8.793,9.148-13.812,12.663-8.134,5.7-18.877,10.652-27.624,14.966-16.876,8.322-34.7,11-51.8,18.419-41.512,18.027-74.1,44.526-92.08,86.339-10.408,24.2-17.839,62.863-8.057,95.549,5.624,18.791,12.31,37.622,21.869,52.954,5.611,9,16.944,16.243,20.718,26.478h-3.453c-4.256-4.062-10.1-5.67-14.963-9.21-16.331-11.886-34.764-39.563-42.587-59.862-34.969-90.739,15.82-189.63,72.513-226.784v-1.151h-3.453c-6.712,4.182-22.249,2.32-32.228,2.3-29.742-.054-49.072-11.529-70.211-20.721-5.995-2.607-13.2-10.149-23.02-8.059-24.453,5.2-46.447,20.372-64.456,33.385-4.454,3.219-6.76,8.262-12.661,10.361v-3.454c5.614-8.626,6.19-20.331,10.359-29.931,14.193-32.676,34.419-58.816,66.758-73.676,3.2,54.893,76.211,85.557,138.12,66.769,26.181-7.945,52.115-19.06,72.513-33.384,5.387-3.784,9.845-9.86,14.963-13.815,9.849-7.61,25.494-21.151,27.624-35.687-3.4-1-4.358-1.57-5.755-4.6a162.882,162.882,0,0,0,34.53-18.419c4.773-3.369,7.233-8.568,12.661-11.512v-1.151h-3.453c-6.493,5.871-15.606,6.321-25.322,9.209-15.657,4.653-50.187,12.889-72.513,8.058-15.608-3.377-32.868-6.613-49.493-6.907v2.3c7,5.869,10.439,27.985,6.906,40.291-5.741,19.994-32.548,52.578-64.456,44.9-21.258-5.118-55.09-33.012-47.191-64.467l6.906-18.419h-2.3c-6.834,4.737-17.441,4.748-25.322,8.058-15.2,6.383-32.817,14.753-46.04,24.175-18.7,13.326-41.7,37.988-54.1,57.56C108,366.136,104.17,378.511,96.888,390.292c-6.957,11.256-16.638,22.811-23.02,34.535-9.484,17.423-14.708,35.641-23.02,54.106h-2.3c-1.509-12.412-7.707-40.856-4.6-55.257,2.03-9.423,3.487-21.289,4.6-29.931C7.971,373.2-13.646,290.749,9.412,234.881h2.3v3.454c-3.585,5.483-1.394,25.22,0,31.082,3.833,16.119,4.553,29.392,10.359,42.594l18.416,32.233H41.64V340.79c-5.768-7.462-2.574-20.906-4.6-32.233-3.812-21.274,4.626-47.852,9.208-64.466h2.3v4.6c-2.464,3.756-2.09,18.245-1.151,24.175,2.8,17.659,7.732,32.688,11.51,49.5,0.926-1.175.409-.315,1.151-2.3,5.467-7.026,6.162-19.861,10.359-27.628,8.483-15.7,25.364-37.941,39.134-48.35,43.1-32.583,89.44-55.8,149.63-72.525,35.474-9.858,76.389-8.918,112.8-17.268,11.516-2.642,20.584.381,32.228-2.3,13.246-3.053,28.581-6.851,42.587-8.058v2.3h-2.3C433.943,155.88,413.719,160.4,399.6,165.81v1.151h6.906l96.684-21.873C590.119,118.436,666.708,94.379,697.71,11.55h2.3V28.818c-1.528,2.525-.217,6.512-1.151,10.361q-4.029,15.539-8.057,31.082c-10.652,25.5-24.817,48.239-40.285,69.071C641.884,150.961,606.14,175.419,604.479,187.682ZM287.954,265.963c-2.893,2.718-7.113,3.283-10.359,5.756-2.781,2.12-4.331,6.742-6.906,9.21-0.456,17.327,4.569,20.756,12.661,28.779l16.114,1.152c4.053-4.91,10.256-5.832,12.661-12.664,6.105-7.466,1.072-16.381-1.151-24.175C303.7,269.3,301.027,265.878,287.954,265.963Z"/>
</svg>
